# xmcd
#
# Track frame offsets:
#	150
#	18951
#	34833
#	49470
#	72439
#	91964
#	110886
#	132154
#	146595
#	164302
#
# Disc length: 2558 seconds
#
# Revision: 0
# Processed by: cddbd v1.5.2PL0 Copyright (c) Steve Scherf et al.
# Submitted via: EasyCDDAExtractor 16.0.8.1
#
DISCID=8f09fc0a
DTITLE=Fred Jarvis - Unrestricted Freedom
DYEAR=2005
DGENRE=Country - Rock - Bluegrass
TTITLE0=True Love Way
TTITLE1=As Long as I Believe I Believe In Me
TTITLE2=Two Million Miles
TTITLE3=Overnight Ride
TTITLE4=God and Angels
TTITLE5=Desert Sky
TTITLE6=Strength of Your Love
TTITLE7=Crash and Burn
TTITLE8=Peace of Mind
TTITLE9=The First and Last Day
EXTD=
EXTT0=
EXTT1=
EXTT2=
EXTT3=
EXTT4=
EXTT5=
EXTT6=
EXTT7=
EXTT8=
EXTT9=
PLAYORDER=
